<svg xmlns="http://www.w3.org/2000/svg" width="24" height="25" viewBox="0 0 24 25" fill="none">
    <path d="M12.0061 3.5C15.3198 3.5 18.0061 6.18629 18.0061 9.5C18.0061 11.445 17.0794 13.1722 15.6448 14.2686C18.1908 15.4059 20.0061 17.707 20.0061 20.5C20.0061 21.0523 19.5584 21.5 19.0061 21.5C18.4538 21.5 18.0061 21.0523 18.0061 20.5C18.0061 17.8776 15.47 15.5 12.0061 15.5C8.54222 15.5 6.0061 17.8776 6.0061 20.5C6.0061 21.0523 5.55839 21.5 5.0061 21.5C4.45382 21.5 4.0061 21.0523 4.0061 20.5C4.0061 17.7073 5.82083 15.406 8.36646 14.2686C6.9322 13.1722 6.0061 11.4447 6.0061 9.5C6.0061 6.18629 8.6924 3.5 12.0061 3.5ZM12.0061 5.5C9.79696 5.5 8.0061 7.29086 8.0061 9.5C8.0061 11.7091 9.79696 13.5 12.0061 13.5C14.2152 13.5 16.0061 11.7091 16.0061 9.5C16.0061 7.29086 14.2152 5.5 12.0061 5.5Z" fill="#BFD5FF"/>
</svg>