<svg xmlns="http://www.w3.org/2000/svg" width="24" height="25" viewBox="0 0 24 25" fill="none">
    <path d="M19.0979 3.60449C19.5518 3.65047 19.9065 4.03393 19.9065 4.5V20.5C19.9065 20.9971 19.5032 21.4004 19.0061 21.4004H5.0061C4.50905 21.4004 4.10571 20.9971 4.10571 20.5V4.5L4.1106 4.4082C4.15658 3.95426 4.54003 3.59961 5.0061 3.59961H19.0061L19.0979 3.60449ZM5.90649 19.5996H18.1057V5.40039H5.90649V19.5996ZM15.0979 15.6045C15.5518 15.6505 15.9065 16.0339 15.9065 16.5C15.9065 16.9661 15.5518 17.3495 15.0979 17.3955L15.0061 17.4004H9.0061C8.50905 17.4004 8.10571 16.9971 8.10571 16.5C8.10571 16.0029 8.50905 15.5996 9.0061 15.5996H15.0061L15.0979 15.6045ZM15.0979 11.6045C15.5518 11.6505 15.9065 12.0339 15.9065 12.5C15.9065 12.9661 15.5518 13.3495 15.0979 13.3955L15.0061 13.4004H9.0061C8.50905 13.4004 8.10571 12.9971 8.10571 12.5C8.10571 12.0029 8.50905 11.5996 9.0061 11.5996H15.0061L15.0979 11.6045ZM15.0979 7.60449C15.5518 7.65047 15.9065 8.03393 15.9065 8.5C15.9065 8.96607 15.5518 9.34953 15.0979 9.39551L15.0061 9.40039H9.0061C8.50905 9.40039 8.10571 8.99706 8.10571 8.5C8.10571 8.00294 8.50905 7.59961 9.0061 7.59961H15.0061L15.0979 7.60449Z" fill="#5A8BD9"/>
</svg>