<svg xmlns="http://www.w3.org/2000/svg" width="13" height="12" viewBox="0 0 13 12" fill="none">
    <path fill-rule="evenodd" clip-rule="evenodd" d="M11.6107 11.7982H7.37982C7.13832 11.7982 6.94232 11.6022 6.94232 11.3607C6.94232 11.1192 7.13832 10.9232 7.37982 10.9232H11.6107C11.8522 10.9232 12.0482 11.1192 12.0482 11.3607C12.0482 11.6022 11.8522 11.7982 11.6107 11.7982" fill="#5A8BD9"/>
    <mask id="mask0_510_181" style="mask-type:luminance" maskUnits="userSpaceOnUse" x="0" y="0" width="11" height="12">
        <path fill-rule="evenodd" clip-rule="evenodd" d="M0.672913 0.750092H10.6949V11.7982H0.672913V0.750092Z" fill="white"/>
    </mask>
    <g mask="url(#mask0_510_181)">
        <path fill-rule="evenodd" clip-rule="evenodd" d="M7.15391 1.92647L1.66182 8.79522C1.56207 8.92005 1.52532 9.08105 1.56207 9.23563L1.95932 10.9186L3.73207 10.8964C3.90066 10.8946 4.05641 10.8194 4.15966 10.6911C6.03624 8.34313 9.61382 3.86663 9.71532 3.73538C9.81099 3.58022 9.84832 3.36088 9.79816 3.14972C9.74682 2.9333 9.61207 2.74955 9.41782 2.6323C9.37641 2.60372 8.39349 1.84072 8.36316 1.8168C7.99332 1.52047 7.45374 1.5718 7.15391 1.92647V1.92647ZM1.61399 11.7982C1.41157 11.7982 1.23541 11.6594 1.18816 11.4616L0.710406 9.43688C0.611823 9.01747 0.709823 8.58463 0.978739 8.24863L6.47374 1.3758C6.47607 1.37347 6.47782 1.37055 6.48016 1.36822C7.08274 0.6478 8.17241 0.541633 8.90741 1.13138C8.93657 1.15413 9.91249 1.91247 9.91249 1.91247C10.2672 2.12363 10.5442 2.50105 10.6492 2.94788C10.7537 3.39005 10.6778 3.84622 10.4346 4.2318C10.4165 4.26038 10.4007 4.28488 4.84274 11.2382C4.57499 11.5719 4.17366 11.7661 3.74257 11.7714L1.61982 11.7982H1.61399Z" fill="#5A8BD9"/>
    </g>
    <path fill-rule="evenodd" clip-rule="evenodd" d="M8.96972 5.81613C8.87639 5.81613 8.78306 5.78638 8.70314 5.72572L5.52281 3.28272C5.33147 3.13572 5.29531 2.86155 5.44231 2.66905C5.58989 2.47772 5.86406 2.44213 6.05597 2.58913L9.23689 5.03155C9.42822 5.17855 9.46439 5.4533 9.31681 5.64522C9.23106 5.75722 9.10097 5.81613 8.96972 5.81613" fill="#5A8BD9"/>
</svg>